<svg xmlns="http://www.w3.org/2000/svg" width="29.158" height="29.106" viewBox="0 0 29.158 29.106">
  <g id="gift_voucher" data-name="gift voucher" transform="translate(-40 -752)">
    <path id="Path_10342" data-name="Path 10342" d="M26.305,6.1H25.172A3.77,3.77,0,0,0,23.427.781a3.728,3.728,0,0,0-4.063.654L16.972,3.6a2.849,2.849,0,0,0-4.788,0l-2.4-2.171a3.774,3.774,0,0,0-6.308,2.8,3.75,3.75,0,0,0,.5,1.872H2.852A2.856,2.856,0,0,0,0,8.955v3.8a.951.951,0,0,0,.951.951H1.9V26.7a2.856,2.856,0,0,0,2.852,2.852H24.4A2.856,2.856,0,0,0,27.256,26.7V13.709h.951a.951.951,0,0,0,.951-.951v-3.8A2.856,2.856,0,0,0,26.305,6.1ZM11.726,27.654H4.754A.952.952,0,0,1,3.8,26.7V13.709h7.923Zm0-15.847H1.9V8.955A.952.952,0,0,1,2.852,8h8.874ZM7.254,6.1A1.874,1.874,0,0,1,5.381,4.231,1.827,1.827,0,0,1,6.495,2.519a1.908,1.908,0,0,1,.775-.168,1.837,1.837,0,0,1,1.241.493l3.6,3.259H7.254Zm7.325-1.9a.952.952,0,0,1,.924.732l-.927.841-.922-.836A.952.952,0,0,1,14.579,4.2Zm.951,23.453h-1.9V13.709h1.9Zm0-15.847h-1.9V8h1.9ZM20.64,2.844A1.872,1.872,0,0,1,23.77,4.231,1.874,1.874,0,0,1,21.9,6.1H17.044ZM25.354,26.7a.952.952,0,0,1-.951.951H17.431V13.709h7.923Zm1.9-14.9H17.431V8h8.874a.952.952,0,0,1,.951.951Z" transform="translate(40 751.551)" fill="#12686e"/>
  </g>
</svg>
