<svg xmlns="http://www.w3.org/2000/svg" width="256.744" height="67" viewBox="0 0 256.744 67">
  <g id="logo" transform="translate(-45 -13)">
    <path id="Path_11034" data-name="Path 11034" d="M13.76-6.24c1.088,2.528,1.6,3.808,2.336,5.472.288.768.544.96.928.96A8.587,8.587,0,0,0,19.456-.16V-.288C18.88-1.44,18.08-3.424,16.768-6.432c-1.248-2.944-4.064-9.76-5.536-13.12a.721.721,0,0,0-.7-.544,14.047,14.047,0,0,0-2.208.32l.384.9C7.648-16.416,2.336-4.288.512-.352L.48-.192A6.024,6.024,0,0,0,2.4.192c.384,0,.608-.128.7-.384C3.648-1.312,4.64-3.68,5.76-6.24ZM6.5-8.192C7.744-11.2,8.768-13.76,9.824-16.32c.448,1.088,1.568,3.776,3.3,8.128Zm21.792-.256h.864c1.76,0,2.368.544,3.616,2.56,1.184,2.016,1.664,2.912,2.752,4.512C36.384-.192,37.12.256,38.08.256a4.09,4.09,0,0,0,1.856-.288V-.16A29.42,29.42,0,0,1,36.32-5.184a15.588,15.588,0,0,0-3.04-4.032c1.312-.576,4-2.112,4-5.28,0-4.192-2.784-5.664-7.04-5.664a31.475,31.475,0,0,0-4.8.48c.064.992.064,1.76.064,3.328v10.72c0,2.656-.064,4.544-.128,5.824A21.789,21.789,0,0,0,27.712.1c.416-.1.576-.224.576-.8Zm0-9.76a8.309,8.309,0,0,1,1.888-.16c2.112,0,4.16,1.056,4.16,4.1a3.885,3.885,0,0,1-2.592,3.9,13.309,13.309,0,0,1-3.456.192ZM54.336-20.48c-6.368,0-10.24,4.64-10.24,10.72C44.1-5.28,46.912.48,54.336.48c6.784,0,10.176-5.12,10.176-10.656C64.512-15.9,60.544-20.48,54.336-20.48Zm-.224,1.824c4.384,0,7.36,3.712,7.36,8.64,0,5.728-2.88,8.672-6.912,8.672-3.744,0-7.392-3.072-7.392-8.7C47.168-15.552,50.144-18.656,54.112-18.656Z" transform="translate(122 59)"/>
    <g id="Group_17" data-name="Group 17" transform="translate(45 13)">
      <g id="Group_16" data-name="Group 16" transform="translate(2.312)">
        <g id="Polygon_1" data-name="Polygon 1" transform="translate(-0.312 16)" fill="none">
          <path d="M17.5,0,35,30H0Z" stroke="none"/>
          <path d="M 17.5 1.984636306762695 L 1.741039276123047 29 L 33.25896072387695 29 L 17.5 1.984636306762695 M 17.5 0 L 35 30 L 0 30 L 17.5 0 Z" stroke="none" fill="#12686e"/>
        </g>
        <g id="Polygon_2" data-name="Polygon 2" transform="translate(13.688)" fill="none">
          <path d="M18.5,0,37,32H0Z" stroke="none"/>
          <path d="M 18.5 1.997978210449219 L 1.733207702636719 31 L 35.26679229736328 31 L 18.5 1.997978210449219 M 18.5 0 L 37 32 L 0 32 L 18.5 0 Z" stroke="none" fill="#12686e"/>
        </g>
        <g id="Polygon_3" data-name="Polygon 3" transform="translate(13.688 30)" fill="none">
          <path d="M17.5,0,35,32H0Z" stroke="none"/>
          <path d="M 17.5 2.084144592285156 L 1.686641693115234 31 L 33.31335830688477 31 L 17.5 2.084144592285156 M 17.5 0 L 35 32 L 0 32 L 17.5 0 Z" stroke="none" fill="#12686e"/>
        </g>
        <g id="Polygon_4" data-name="Polygon 4" transform="translate(29.688 16)" fill="none">
          <path d="M16.5,0,33,30H0Z" stroke="none"/>
          <path d="M 16.5 2.075046539306641 L 1.691276550292969 29 L 31.30872344970703 29 L 16.5 2.075046539306641 M 16.5 0 L 33 30 L 0 30 L 16.5 0 Z" stroke="none" fill="#12686e"/>
        </g>
      </g>
      <g id="Ellipse_1" data-name="Ellipse 1" fill="none" stroke="#12686e" stroke-width="1">
        <ellipse cx="34.5" cy="33.5" rx="34.5" ry="33.5" stroke="none"/>
        <ellipse cx="34.5" cy="33.5" rx="34" ry="33" fill="none"/>
      </g>
    </g>
    <path id="Path_11035" data-name="Path 11035" d="M-95.84-11.36v-7.072c0-1.472-.1-1.664-.544-1.664a15.722,15.722,0,0,0-2.368.256c.064.608.1,1.92.1,4.064V-5.664c0,2.688-.032,4.576-.1,5.856A12.061,12.061,0,0,0-96.64.064c.64-.1.8-.192.8-.832v-8.64h5.888c2.816,0,3.872-.032,4.512-.1V-.32c0,.416.16.512.48.512a16.543,16.543,0,0,0,2.432-.256c-.032-.64-.1-1.7-.1-3.936V-14.336c0-2.656.032-4.544.1-5.76a17.052,17.052,0,0,0-2.272.128c-.48.032-.64.16-.64.8v7.808Zm30.464-9.12c-6.368,0-10.24,4.64-10.24,10.72C-75.616-5.28-72.8.48-65.376.48-58.592.48-55.2-4.64-55.2-10.176-55.2-15.9-59.168-20.48-65.376-20.48Zm-.224,1.824c4.384,0,7.36,3.712,7.36,8.64,0,5.728-2.88,8.672-6.912,8.672-3.744,0-7.392-3.072-7.392-8.7C-72.544-15.552-69.568-18.656-65.6-18.656ZM-44.512-.384c0,.48.16.576.48.576A11.808,11.808,0,0,0-41.6-.064c-.032-.64-.1-1.7-.1-3.9v-14.08h5.856A2.383,2.383,0,0,0-34.688-20H-45.472c-3.584,0-4.32-.032-4.768-.16a5.352,5.352,0,0,0-.9,1.408c-.192.512.032.7.512.7h6.112Zm15.584-.352.448.608a35.067,35.067,0,0,0,5.728.32A35.3,35.3,0,0,0-18.88.064a2.746,2.746,0,0,0,1.472-1.92l-.064-.064c-1.248.128-3.3.16-4.736.16a20.067,20.067,0,0,1-3.9-.256v-7.3h5.5c1.056,0,1.7-.256,1.952-1.984h-7.456v-6.752H-21.7a7.428,7.428,0,0,0,2.528-.192A2.741,2.741,0,0,0-18.4-20h-8.128a12.5,12.5,0,0,0-2.5.448c.1,1.216.1,2.528.1,4.032Zm17.536,0,.448.608a37.432,37.432,0,0,0,5.536.32A30.947,30.947,0,0,0-1.7.064a2.4,2.4,0,0,0,1.44-1.92L-.32-1.92c-1.248.128-3.3.16-4.736.16a16.2,16.2,0,0,1-3.52-.288v-16.32c0-1.536-.1-1.728-.48-1.728a16.713,16.713,0,0,0-2.432.256c.064.64.1,1.952.1,4.1Z" transform="translate(302 59)" fill="#12686e"/>
  </g>
</svg>
